HIERARCHY
ROOT Hips
{
	OFFSET 0.00000 0.00000 0.00000
	CHANNELS 6 Xposition Yposition Zposition Zrotation Yrotation Xrotation 
	JOINT LHipJoint
	{
		OFFSET 0 0 0
		CHANNELS 3 Zrotation Yrotation Xrotation
		JOINT LeftUpLeg
		{
			OFFSET 1.35324 -1.81393 0.86676
			CHANNELS 3 Zrotation Yrotation Xrotation
			JOINT LeftLeg
			{
				OFFSET 2.44396 -6.71474 0.00000
				CHANNELS 3 Zrotation Yrotation Xrotation
				JOINT LeftFoot
				{
					OFFSET 2.78389 -7.64869 0.00000
					CHANNELS 3 Zrotation Yrotation Xrotation
					JOINT LeftToeBase
					{
						OFFSET 0.15837 -0.43512 1.94704
						CHANNELS 3 Zrotation Yrotation Xrotation
						End Site
						{
							OFFSET 0.00000 -0.00000 1.00735
						}
					}
				}
			}
		}
	}
	JOINT RHipJoint
	{
		OFFSET 0 0 0
		CHANNELS 3 Zrotation Yrotation Xrotation
		JOINT RightUpLeg
		{
			OFFSET -1.14956 -1.81393 0.86676
			CHANNELS 3 Zrotation Yrotation Xrotation
			JOINT RightLeg
			{
				OFFSET -2.55632 -7.02343 0.00000
				CHANNELS 3 Zrotation Yrotation Xrotation
				JOINT RightFoot
				{
					OFFSET -2.63038 -7.22691 0.00000
					CHANNELS 3 Zrotation Yrotation Xrotation
					JOINT RightToeBase
					{
						OFFSET -0.22277 -0.61205 2.06087
						CHANNELS 3 Zrotation Yrotation Xrotation
						End Site
						{
							OFFSET -0.00000 -0.00000 1.07867
						}
					}
				}
			}
		}
	}
	JOINT LowerBack
	{
		OFFSET 0 0 0
		CHANNELS 3 Zrotation Yrotation Xrotation
		JOINT Spine
		{
			OFFSET -0.05682 2.18266 -0.21665
			CHANNELS 3 Zrotation Yrotation Xrotation
			JOINT Spine1
			{
				OFFSET 0.08791 2.18267 0.00700
				CHANNELS 3 Zrotation Yrotation Xrotation
				JOINT Neck
				{
					OFFSET 0 0 0
					CHANNELS 3 Zrotation Yrotation Xrotation
					JOINT Neck1
					{
						OFFSET -0.14851 1.58495 0.25390
						CHANNELS 3 Zrotation Yrotation Xrotation
						JOINT Head
						{
							OFFSET 0.13566 1.62237 -0.28476
							CHANNELS 3 Zrotation Yrotation Xrotation
							End Site
							{
								OFFSET 0.05601 1.65818 -0.12921
							}
						}
					}
				}
				JOINT LeftShoulder
				{
					OFFSET 0 0 0
					CHANNELS 3 Zrotation Yrotation Xrotation
					JOINT LeftArm
					{
						OFFSET 3.23337 0.97114 -0.51072
						CHANNELS 3 Zrotation Yrotation Xrotation
						JOINT LeftForeArm
						{
							OFFSET 5.19964 -0.00068 -0.00051
							CHANNELS 3 Zrotation Yrotation Xrotation
							JOINT LeftHand
							{
								OFFSET 3.32189 -0.00000 0.00000
								CHANNELS 3 Zrotation Yrotation Xrotation
								JOINT LeftFingerBase
								{
									OFFSET 0 0 0
									CHANNELS 3 Zrotation Yrotation Xrotation
									JOINT LeftHandIndex1
									{
										OFFSET 0.64562 -0.00000 0.00000
										CHANNELS 3 Zrotation Yrotation Xrotation
										End Site
										{
											OFFSET 0.52051 -0.00000 0.00000
										}
									}
								}
								JOINT LThumb
								{
									OFFSET 0 0 0
									CHANNELS 3 Zrotation Yrotation Xrotation
									End Site
									{
										OFFSET 0.52846 -0.00000 0.52846
									}
								}
							}
						}
					}
				}
				JOINT RightShoulder
				{
					OFFSET 0 0 0
					CHANNELS 3 Zrotation Yrotation Xrotation
					JOINT RightArm
					{
						OFFSET -2.95712 1.24697 -0.52388
						CHANNELS 3 Zrotation Yrotation Xrotation
						JOINT RightForeArm
						{
							OFFSET -5.65950 -0.00000 -0.00000
							CHANNELS 3 Zrotation Yrotation Xrotation
							JOINT RightHand
							{
								OFFSET -3.37604 -0.00000 -0.00000
								CHANNELS 3 Zrotation Yrotation Xrotation
								JOINT RightFingerBase
								{
									OFFSET 0 0 0
									CHANNELS 3 Zrotation Yrotation Xrotation
									JOINT RightHandIndex1
									{
										OFFSET -0.82470 -0.00000 -0.00000
										CHANNELS 3 Zrotation Yrotation Xrotation
										End Site
										{
											OFFSET -0.66490 -0.00000 -0.00000
										}
									}
								}
								JOINT RThumb
								{
									OFFSET 0 0 0
									CHANNELS 3 Zrotation Yrotation Xrotation
									End Site
									{
										OFFSET -0.67505 -0.00000 0.67505
									}
								}
							}
						}
					}
				}
			}
		}
	}
}
MOTION
Frames: 16
Frame Time: 0.0540541
0.00 0.00 0.00 0 0 0 0 0 0 -21 0 0 0 0 0 0 0 0 0 0 0 0 0 0 21 0 0 0 0 0 0 0 0 0 0 0 0 0 0 0 0 0 0 0 0 0 0 -16 0 0 21 0 0 11 0 0 0 -8 0 0 0 0 0 0 0 0 0 0 0 0 0 0 0 0 0 0 0 0 8 0 0 0 0 0 0 0 0 0 0 0 0 0 0 0 0 0
0.00 0.00 0.00 -8.5569 -48.2430 21.8645 0.0000 0.0000 0.0000 -22.0233 -1.5743 -25.3697 6.7383 15.1075 47.8774 0.9379 12.5144 -26.7309 7.4266 -15.6808 -50.4698 0.0000 0.0000 0.0000 14.5663 10.6483 -30.1614 -13.6709 -19.0112 71.1968 -0.1083 -9.7957 -15.6234 -1.3587 -7.3783 20.8412 -3.9640 0.5678 9.6288 3.0124 0.4603 0.2358 5.3466 0.3571 -5.2227 -8.6476 3.3178 -14.9509 8.0155 4.7739 21.6477 4.7391 2.3605 8.7853 -0.0000 0.0000 0.0000 -82.3846 -6.7513 8.0044 17.3328 -27.2944 -4.2388 -0.0000 -0.0000 5.7838 3.8036 31.9545 2.0152 -7.1250 0.0000 -0.0000 -31.7470 59.0558 -11.6317 -0.0000 0.0000 0.0000 83.3117 -4.3970 14.7218 -26.5946 37.7898 -9.2496 0.0000 -0.0000 -15.2989 -11.5086 17.9101 -3.5829 7.1250 -0.0000 -0.0000 10.8355 -11.9698 8.5099
0.00 0.00 0.00 -7.2763 -45.7584 23.4950 0.0000 0.0000 0.0000 -21.0226 -8.2057 -26.7935 7.0956 15.4119 49.2349 0.1323 -17.2838 -13.3838 0.8282 5.8060 16.2226 0.0000 0.0000 0.0000 14.7833 12.6239 -37.8790 -13.1325 -18.8295 69.5366 -0.5605 -6.2031 -17.7563 -0.4658 -4.3777 12.1418 -5.0946 -0.4993 9.9955 3.0510 -1.0971 -0.0381 6.2696 -0.3642 -5.5057 -8.6780 3.4091 -15.2283 8.3690 4.8799 20.8669 4.8513 2.4692 8.5474 0.0000 -0.0000 0.0000 -80.5544 -11.7429 8.9246 16.6758 -26.4284 -3.9420 -0.0000 -0.0000 4.2974 5.4610 31.6512 2.8719 -7.1250 0.0000 -0.0000 -29.8321 59.1715 -10.9303 0.0000 -0.0000 0.0000 83.7144 -4.7877 16.1770 -26.7415 37.9315 -9.3398 0.0000 -0.0000 -18.0306 -12.5075 16.8325 -3.6755 7.1250 -0.0000 -0.0000 10.1758 -12.9597 7.7606
0.00 0.00 0.00 -6.5662 -34.9132 25.1987 0.0000 0.0000 0.0000 -30.0927 -7.9368 2.6335 3.6507 11.6805 34.6108 -0.3894 -12.0885 -0.9603 0.6741 -5.2500 -14.6229 0.0000 0.0000 0.0000 15.9138 15.1943 -72.5015 -12.5995 -18.6327 67.8768 -0.2040 9.1888 -9.6416 -0.3152 -3.6091 9.9794 -5.4705 -4.8826 13.9214 4.8825 -7.0337 1.1674 9.5633 -3.3285 -5.2342 -7.2573 3.9599 -16.2286 9.9949 5.1843 17.1078 5.0682 2.9620 7.4379 0.0000 -0.0000 0.0000 -70.8753 -28.1169 4.8031 14.7486 -23.7947 -3.1238 -0.0000 -0.0000 4.5293 2.8924 32.1229 1.5389 -7.1250 0.0000 -0.0000 -32.7965 58.9919 -12.0185 0.0000 -0.0000 0.0000 80.7076 -11.9695 16.4992 -36.4252 45.8034 -15.8266 0.0000 -0.0000 -13.1137 -15.2769 18.2846 -4.8979 7.1250 -0.0000 -0.0000 8.3765 -11.2273 6.6587
0.00 0.00 0.00 -7.3132 -33.5826 25.8049 0.0000 0.0000 0.0000 -29.6231 -7.9358 3.5551 3.8803 11.9994 35.7298 0.2777 -6.9073 14.8111 0.0728 1.7401 4.7878 0.0000 0.0000 0.0000 16.7823 14.6190 -69.5903 -13.9406 -19.0959 72.0231 -0.7055 8.3329 -15.2023 -0.2700 -3.3425 9.2337 -4.3511 -5.3966 13.1664 5.6275 -7.4923 0.6764 9.7503 -3.5653 -5.2945 -7.3606 3.9020 -16.0098 9.9114 5.1063 17.5733 5.0619 2.9003 7.5579 -0.0000 0.0000 0.0000 -69.6947 -26.6837 1.6240 14.4100 -23.3178 -2.9885 -0.0000 -0.0000 6.6570 4.7794 29.7415 2.3752 -7.1250 0.0000 -0.0000 -28.8839 57.3738 -9.2714 -0.0000 0.0000 0.0000 79.3383 -13.4933 16.6927 -38.9768 47.4519 -17.6817 0.0000 -0.0000 -15.6013 -16.7527 18.0581 -5.3308 7.1250 -0.0000 -0.0000 7.4019 -11.2971 5.8588
0.00 0.00 0.00 -8.7772 -33.2045 26.5680 0.0000 0.0000 0.0000 -28.5771 -7.5996 0.5686 5.2270 13.6350 41.7945 2.5325 2.1328 29.5710 2.4728 9.7884 28.2941 0.0000 0.0000 0.0000 18.0800 15.3258 -65.4997 -14.8191 -19.3439 74.6911 -1.5668 5.2493 -22.5444 -0.3623 -3.8666 10.7016 -3.2488 -5.2516 13.5956 6.4781 -7.0856 0.1272 10.1232 -3.3252 -6.2243 -7.4109 3.8470 -16.3073 9.6059 5.0924 18.2070 5.0053 2.8582 7.8286 -0.0000 0.0000 0.0000 -67.1049 -24.7911 -2.0123 13.9306 -22.6354 -2.8014 -0.0000 -0.0000 8.4565 4.7794 28.9090 2.3146 -7.1250 0.0000 -0.0000 -28.2305 56.6481 -8.5304 -0.0000 0.0000 0.0000 77.1447 -13.4100 16.9693 -39.9656 48.0495 -18.4136 0.0000 -0.0000 -14.4737 -16.7570 18.1330 -5.3535 7.1250 -0.0000 -0.0000 7.4019 -11.2197 5.8707
0.00 0.00 0.00 -11.8041 -32.9348 27.4820 0.0000 0.0000 0.0000 -25.0525 -5.2340 -9.0236 10.0603 17.4436 59.6896 1.6442 8.7887 22.9726 1.2602 7.1163 20.0605 0.0000 0.0000 0.0000 20.2285 16.5330 -57.6591 -15.1531 -19.4272 75.6973 -2.7243 2.9838 -30.5116 -0.0000 -0.0057 0.0158 -0.7686 -4.6310 14.5030 7.1241 -5.8204 0.4051 9.3128 -2.7504 -6.8501 -8.2213 3.2147 -16.3635 10.0685 4.3739 17.6536 5.2080 2.5185 7.6922 0.0000 0.0000 0.0000 -61.6741 -22.3061 -8.9378 13.5668 -22.1120 -2.6629 -0.0000 -0.0000 10.4347 7.0151 28.6310 3.3744 -7.1250 0.0000 -0.0000 -25.8294 56.8608 -7.8676 0.0000 0.0000 0.0000 74.5963 -9.1338 17.0547 -38.9600 47.4415 -17.6693 0.0000 -0.0000 -9.8165 -15.4925 21.5536 -5.8144 7.1250 -0.0000 -0.0000 8.3644 -7.8857 7.2171
0.00 0.00 0.00 -14.7266 -32.3406 28.0127 0.0000 0.0000 0.0000 -20.0398 -2.6888 -19.8092 15.4646 19.4995 76.6323 0.4426 4.8928 11.8474 0.7353 5.4782 15.2776 0.0000 0.0000 0.0000 23.1387 15.8514 -49.6756 -14.4040 -19.2320 73.4346 -3.3143 1.5014 -34.1408 -0.2458 3.1900 -8.8082 1.5339 -3.6742 15.2854 7.7087 -4.1287 0.9929 8.3616 -1.9949 -7.0382 -8.4666 2.2562 -17.8022 10.1521 3.1647 18.5454 5.2468 1.9548 8.3663 -0.0000 0.0000 0.0000 -56.9999 -19.9955 -13.2935 13.3724 -21.8305 -2.5901 -0.0000 -0.0000 12.8666 9.1588 25.5971 3.9846 -7.1250 0.0000 -0.0000 -21.6967 54.5207 -5.2618 -0.0000 0.0000 0.0000 72.4873 -3.7515 17.5047 -39.6059 47.8347 -18.1466 0.0000 -0.0000 -8.7989 -16.4656 21.0576 -6.0619 7.1250 -0.0000 -0.0000 7.7219 -8.2668 6.5932
0.00 0.00 0.00 -16.8353 -31.5543 28.4413 0.0000 0.0000 0.0000 -13.1190 -0.6634 -36.6085 21.3564 19.9558 93.9688 0.0327 -2.0676 4.8120 0.5725 4.8457 13.4691 0.0000 0.0000 0.0000 25.3761 13.2411 -39.9400 -12.6507 -18.6524 68.0371 -3.7199 1.4494 -36.2455 -0.5999 4.9581 -13.7890 2.7680 -1.9500 15.5921 8.2706 -1.5780 1.1029 7.7669 -0.7748 -7.4300 -9.9638 0.3496 -17.9776 11.1059 0.7312 18.9289 5.5923 0.8027 8.7742 0.0000 -0.0000 0.0000 -50.6152 -17.3529 -19.2436 12.6388 -20.7557 -2.3237 -0.0000 -0.0000 17.0722 5.7917 25.9985 2.5458 -7.1250 0.0000 -0.0000 -25.2070 54.2609 -6.0281 0.0000 -0.0000 0.0000 69.9628 1.2178 16.5199 -46.0926 51.2927 -23.0883 0.0000 -0.0000 -6.6302 -15.6814 20.5076 -5.6170 7.1250 -0.0000 -0.0000 8.1959 -8.9235 6.8983
0.00 0.00 0.00 -20.4346 -29.9446 28.9092 0.0000 0.0000 0.0000 -2.7520 1.6584 -61.2064 23.5783 19.6902 100.5143 0.1168 -6.5521 -7.1204 0.0009 -0.1922 -0.5281 0.0000 0.0000 0.0000 28.3009 7.1737 -21.3262 -7.8501 -16.0079 52.0210 -2.5683 4.1592 -29.3583 -0.9289 6.1398 -17.1907 4.5131 0.7132 15.7022 8.3708 2.3652 0.4616 6.0156 1.0964 -8.5560 -9.4920 -2.6645 -17.7535 11.9763 -4.0084 20.8901 5.3015 -1.2906 10.0097 -0.0000 -0.0000 0.0000 -42.5122 -6.6219 -24.2939 15.4218 -24.7304 -3.4005 -0.0000 -0.0000 11.7404 3.2458 31.7822 1.7108 -7.1250 0.0000 -0.0000 -32.1363 58.7857 -11.5812 -0.0000 -0.0000 0.0000 66.2781 4.7257 17.9393 -68.3388 58.1507 -41.3573 0.0000 -0.0000 -8.2356 -17.9615 19.8662 -6.2866 7.1250 -0.0000 -0.0000 6.6998 -9.2950 5.5689
0.00 0.00 0.00 -22.1128 -28.8226 27.4895 0.0000 0.0000 0.0000 0.7040 1.0724 -66.5427 20.9370 19.9789 92.7407 0.3458 -6.4828 -10.7351 0.0036 -0.3890 -1.0688 0.0000 0.0000 0.0000 28.1434 2.5816 -11.1433 -5.5489 -13.9765 43.1434 -0.7383 5.1439 -15.3127 -1.2381 7.0559 -19.8812 5.3985 1.5491 16.0511 8.9204 3.7371 0.3197 5.8087 1.7297 -9.0025 -9.9273 -3.9448 -16.3126 12.7043 -6.1023 21.7751 5.3798 -2.2555 10.3582 -0.0000 0.0000 0.0000 -39.7290 -0.9975 -27.3486 15.4950 -24.8312 -3.4311 -0.0000 -0.0000 7.7485 5.1846 30.6747 2.6504 -7.1250 0.0000 -0.0000 -29.2554 58.2691 -10.0503 -0.0000 0.0000 0.0000 62.8561 7.0724 18.2831 -73.5976 58.9586 -45.8448 0.0000 -0.0000 -6.6831 -17.2792 21.9097 -6.6209 7.1250 -0.0000 -0.0000 7.2549 -7.2900 6.3279
0.00 0.00 0.00 -23.8251 -27.7785 26.7704 0.0000 0.0000 0.0000 2.9588 0.4592 -68.0238 17.8699 19.8909 83.7612 0.5224 -5.3810 -12.8812 0.0129 -0.7322 -2.0124 0.0000 0.0000 0.0000 27.0611 -1.5300 -4.7659 -3.9183 -12.0509 35.9124 0.0017 2.2516 3.0845 -0.0365 1.2335 -3.3915 7.0703 1.5895 14.1535 9.8601 3.8586 0.5996 5.8903 1.7479 -7.5951 -11.7880 -4.6416 -14.2832 13.4187 -7.0393 22.2377 5.8657 -2.8388 10.3556 -0.0000 0.0000 0.0000 -39.0197 4.2600 -30.4347 15.5434 -24.8977 -3.4515 -0.0000 -0.0000 6.9961 6.5780 33.0739 3.6009 -7.1250 0.0000 -0.0000 -30.0398 60.6488 -12.0883 -0.0000 0.0000 0.0000 58.8712 8.9433 19.3139 -76.6042 59.3110 -48.4257 0.0000 -0.0000 -4.9573 -16.3617 22.0326 -6.2850 7.1250 -0.0000 -0.0000 7.8407 -7.2879 6.8488
0.00 0.00 0.00 -25.1418 -25.0022 24.0792 0.0000 0.0000 0.0000 5.1808 -1.2725 -67.0674 11.6315 18.2305 64.8160 0.6021 -4.4916 -13.8213 0.0088 -0.6042 -1.6603 0.0000 0.0000 0.0000 24.1807 -6.3398 6.4318 -2.2397 -9.3485 26.8918 -1.0249 -8.1410 18.1338 -0.5738 -4.8512 13.4846 8.8736 2.4608 13.0588 10.3829 5.1768 0.5876 5.2210 2.3511 -6.9612 -10.7350 -6.9423 -13.4597 12.9806 -10.7445 23.6546 5.0106 -4.4979 11.1936 0.0000 -0.0000 0.0000 -34.1617 8.8009 -31.1042 15.2532 -24.4977 -3.3302 -0.0000 -0.0000 4.6388 10.4178 39.6896 6.6968 -7.1250 0.0000 -0.0000 -34.0831 67.1676 -19.0751 0.0000 -0.0000 0.0000 52.1834 5.9056 19.0665 -87.4223 59.9749 -57.7678 0.0000 -0.0000 -5.2608 -18.9314 19.7833 -6.6218 7.1250 -0.0000 -0.0000 6.0695 -9.2537 5.0436
0.00 0.00 0.00 -26.5315 -25.7323 20.5753 0.0000 0.0000 0.0000 6.4245 -0.9727 -61.3783 6.9143 15.2593 48.5495 0.5002 -3.4794 -12.6246 0.1014 -2.0531 -5.6524 0.0000 0.0000 0.0000 20.0670 -7.0425 16.7648 -2.1572 -9.1862 26.3795 -0.8206 -11.6634 16.9698 -0.2849 -3.4330 9.4866 8.1097 2.3737 12.0033 12.2627 4.7881 1.1993 7.8647 2.2359 -5.9345 -14.0373 -6.7426 -10.3682 12.8588 -10.2948 25.7665 5.7513 -4.7336 11.4923 -0.0000 -0.0000 0.0000 -33.0327 17.8756 -29.9916 15.4555 -24.7768 -3.4146 -0.0000 -0.0000 2.4601 10.3002 38.2685 6.4220 -7.1250 0.0000 -0.0000 -32.1628 65.9848 -17.0512 -0.0000 -0.0000 0.0000 45.9062 6.3473 20.4123 -87.1392 59.9691 -57.5227 0.0000 -0.0000 -5.6295 -20.4868 21.1789 -7.6875 7.1250 -0.0000 -0.0000 5.1716 -7.5849 4.4624
0.00 0.00 0.00 -27.2338 -25.8010 16.1749 0.0000 0.0000 0.0000 10.6940 -5.7565 -51.4974 2.8883 10.5120 30.6511 0.5317 1.4511 -14.3752 0.4149 -4.1346 -11.4557 0.0000 0.0000 0.0000 14.3741 -5.7534 25.0463 -3.3904 -11.3017 33.3042 -1.1605 -9.7319 19.4179 -0.6575 -5.1865 14.4412 8.8341 2.6164 10.7091 12.8288 4.9605 1.5009 8.1052 2.3304 -4.8857 -14.7388 -7.6934 -9.6161 11.9253 -11.9360 30.0108 5.4166 -5.6923 13.3293 0.0000 0.0000 0.0000 -27.6917 24.5906 -25.7246 16.5479 -26.2580 -3.8852 -0.0000 -0.0000 1.3526 14.0408 40.6804 9.2586 -7.1250 0.0000 -0.0000 -31.7433 69.0841 -18.9990 0.0000 0.0000 0.0000 43.7738 3.9923 17.0524 -81.0323 59.6939 -52.2417 0.0000 -0.0000 -7.5046 -23.0510 21.3491 -8.8058 7.1250 -0.0000 -0.0000 3.5597 -7.0016 3.1054
0.00 0.00 0.00 -27.1956 -26.2596 12.1646 0.0000 0.0000 0.0000 13.5494 -10.6752 -44.2718 1.7306 8.2808 23.5703 0.5168 8.5782 -19.3185 0.1699 -2.6553 -7.3205 0.0000 0.0000 0.0000 10.7296 0.3662 28.3613 -6.8945 -15.2424 48.4742 -1.4146 -8.0329 21.2775 -1.1831 -6.9029 19.4280 8.9217 2.6906 9.0041 13.1615 4.7315 1.8082 8.5256 2.2446 -3.5964 -15.1834 -8.1412 -8.3680 11.1242 -12.7349 32.0641 5.1374 -6.2529 14.0795 -0.0000 0.0000 0.0000 -23.5809 29.5855 -22.6917 18.6845 -29.0247 -4.8768 -0.0000 -0.0000 1.2374 18.7516 38.2888 11.8792 -7.1250 0.0000 -0.0000 -22.7320 68.5333 -13.0881 -0.0000 0.0000 0.0000 43.9177 -1.3154 13.2398 -74.2973 59.0475 -46.4445 0.0000 -0.0000 -9.6523 -24.0504 20.3470 -8.8205 7.1250 -0.0000 -0.0000 2.8261 -7.9000 2.4138
